<svg width="152" height="33" viewBox="0 0 152 33" fill="none" xmlns="http://www.w3.org/2000/svg">
<path d="M16.26 10C17.7183 10.0833 18.9163 10.6458 19.8538 11.6875C20.7913 12.7083 21.4683 13.875 21.885 15.1875C22.3017 16.5 22.51 17.8438 22.51 19.2188C22.51 20.5938 22.3017 21.9375 21.885 23.25C21.4892 24.5625 20.8121 25.7396 19.8538 26.7812C18.9163 27.8021 17.7183 28.3542 16.26 28.4375H4.76C4.1975 28.4167 3.71834 28.2188 3.3225 27.8438C2.9475 27.4479 2.74959 26.9688 2.72875 26.4062V18.6562C2.74959 18.0729 2.96834 17.5938 3.385 17.2188C3.80167 16.8229 4.30167 16.625 4.885 16.625C5.4475 16.6458 5.92667 16.8542 6.3225 17.25C6.71834 17.625 6.92667 18.0938 6.9475 18.6562V23.4062C6.9475 23.9688 7.23917 24.25 7.8225 24.25H15.1975C15.9892 24.2083 16.6454 23.9062 17.1663 23.3438C17.6871 22.7812 18.0621 22.1458 18.2913 21.4375C18.5413 20.7083 18.6663 19.9688 18.6663 19.2188C18.6663 18.4688 18.5413 17.7396 18.2913 17.0312C18.0621 16.3021 17.6871 15.6562 17.1663 15.0938C16.6454 14.5312 15.9892 14.2292 15.1975 14.1875H4.76C3.51 14.0833 2.83292 13.4062 2.72875 12.1562C2.72875 11.5729 2.91625 11.0729 3.29125 10.6562C3.68709 10.2396 4.17667 10.0208 4.76 10H16.26ZM31.0275 23.5938C31.0275 23.0104 31.2254 22.5208 31.6213 22.125C32.0379 21.7083 32.5379 21.5 33.1213 21.5H37.9025L37.09 19.1875C36.7567 18.3333 36.4233 17.5312 36.09 16.7812C35.7775 16.0104 35.4129 15.3125 34.9963 14.6875C34.6213 14.0625 34.1942 13.7292 33.715 13.6875C33.215 13.7292 32.7671 14.0625 32.3713 14.6875C31.9754 15.3125 31.6108 16.0104 31.2775 16.7812C30.965 17.5312 30.6421 18.3333 30.3088 19.1875L27.34 27.3125C27.1317 27.75 26.8608 28.1146 26.5275 28.4062C26.215 28.6771 25.7358 28.8125 25.09 28.8125C24.4858 28.8125 23.9858 28.6042 23.59 28.1875C23.215 27.7708 23.0483 27.2708 23.09 26.6875C23.1108 26.4167 23.1733 26.1667 23.2775 25.9375L26.715 17.0625C27.6733 14.7292 28.6317 12.8438 29.59 11.4062C30.5275 9.98958 31.9025 9.27083 33.715 9.25C35.5067 9.27083 36.8713 9.98958 37.8088 11.4062C38.7671 12.8021 39.7254 14.6875 40.6838 17.0625L44.1213 25.9375C44.2254 26.1667 44.2879 26.4167 44.3088 26.6875C44.3504 27.2708 44.1733 27.7708 43.7775 28.1875C43.4025 28.6042 42.9129 28.8125 42.3088 28.8125C41.6213 28.8125 41.1108 28.6771 40.7775 28.4062C40.465 28.1146 40.2046 27.75 39.9963 27.3125L39.4025 25.6875H33.1213C32.5379 25.6875 32.0483 25.4792 31.6525 25.0625C31.2358 24.6667 31.0275 24.1771 31.0275 23.5938ZM62.295 10C63.3575 10.0208 64.3054 10.3542 65.1388 11C65.9721 11.6458 66.6388 12.4167 67.1388 13.3125C67.6596 14.2083 68.045 15.1562 68.295 16.1562C68.545 17.1562 68.67 18.1771 68.67 19.2188C68.67 20.5938 68.4513 21.9479 68.0138 23.2812C67.5971 24.5938 66.8992 25.7604 65.92 26.7812C64.9617 27.8021 63.7533 28.3542 62.295 28.4375H51.3888C49.9304 28.375 48.7117 27.8333 47.7325 26.8125C46.7533 25.7917 46.0554 24.6146 45.6388 23.2812C45.2429 21.9479 45.045 20.5938 45.045 19.2188C45.045 17.8438 45.2533 16.5 45.67 15.1875C46.0867 13.8542 46.7742 12.6771 47.7325 11.6562C48.7117 10.6146 49.9304 10.0625 51.3888 10H51.9825H61.7013H62.295ZM61.2325 24.25C62.0242 24.2083 62.6804 23.9167 63.2013 23.375C63.7429 22.8125 64.1283 22.1667 64.3575 21.4375C64.5867 20.7083 64.7013 19.9688 64.7013 19.2188C64.7013 18.4688 64.5763 17.7396 64.3263 17.0312C64.0971 16.3021 63.7221 15.6562 63.2013 15.0938C62.6804 14.5312 62.0242 14.2292 61.2325 14.1875H52.3575C51.5658 14.2292 50.9096 14.5312 50.3888 15.0938C49.8679 15.6562 49.4825 16.3021 49.2325 17.0312C49.0033 17.7396 48.8888 18.4688 48.8888 19.2188C48.8888 19.9688 49.0033 20.7083 49.2325 21.4375C49.4617 22.1667 49.8367 22.8125 50.3575 23.375C50.8992 23.9167 51.5658 24.2083 52.3575 24.25H61.2325ZM80.125 9.15625C81.2083 9.15625 82.2708 9.28125 83.3125 9.53125C84.375 9.78125 85.3854 10.1562 86.3438 10.6562C87.3021 11.1354 88.1458 11.7812 88.875 12.5938C89.625 13.4062 90.0312 14.375 90.0938 15.5V16.8125V26.7812C89.9688 28.0312 89.2812 28.7083 88.0312 28.8125C87.4479 28.8125 86.9375 28.625 86.5 28.25C86.0833 27.8542 85.875 27.3646 85.875 26.7812V16.4688C85.8333 15.8229 85.5833 15.2917 85.125 14.875C84.6875 14.4375 84.1875 14.0938 83.625 13.8438C83.0833 13.5938 82.5104 13.4062 81.9062 13.2812C81.3229 13.1562 80.7292 13.0938 80.125 13.0938C79.5208 13.0938 78.9167 13.1562 78.3125 13.2812C77.7292 13.4062 77.1562 13.5938 76.5938 13.8438C76.0521 14.0938 75.5521 14.4375 75.0938 14.875C74.6562 15.2917 74.4167 15.8229 74.375 16.4688V26.7812C74.2708 28.0312 73.5938 28.7083 72.3438 28.8125C71.7604 28.8125 71.25 28.625 70.8125 28.25C70.3958 27.8542 70.1875 27.3646 70.1875 26.7812V16.8125V15.5C70.25 14.375 70.6458 13.4062 71.375 12.5938C72.1042 11.7812 72.9479 11.1354 73.9062 10.6562C74.8646 10.1562 75.8646 9.78125 76.9062 9.53125C77.9688 9.28125 79.0417 9.15625 80.125 9.15625ZM105.598 12.0938C105.598 11.5104 105.795 11.0208 106.191 10.625C106.608 10.2083 107.108 10 107.691 10H125.879C126.462 10 126.962 10.1979 127.379 10.5938C127.775 11.0104 127.973 11.5104 127.973 12.0938C127.973 12.6771 127.764 13.1771 127.348 13.5938C126.952 13.9896 126.462 14.1875 125.879 14.1875H118.91V26.8438C118.785 28.0938 118.098 28.7708 116.848 28.875C116.264 28.875 115.754 28.6875 115.316 28.3125C114.9 27.9167 114.691 27.4271 114.691 26.8438V14.1875H107.691C107.108 14.1875 106.618 13.9792 106.223 13.5625C105.806 13.1667 105.598 12.6771 105.598 12.0938ZM135.303 26.7812C134.344 25.3438 133.386 23.4583 132.428 21.125L128.99 12.25C128.886 12.0208 128.823 11.7708 128.803 11.5C128.761 10.9167 128.928 10.4167 129.303 10C129.698 9.58333 130.198 9.375 130.803 9.375C131.448 9.375 131.928 9.52083 132.24 9.8125C132.573 10.0833 132.844 10.4375 133.053 10.875L136.021 19C136.355 19.8542 136.678 20.6667 136.99 21.4375C137.323 22.1875 137.688 22.875 138.084 23.5C138.48 24.125 138.928 24.4583 139.428 24.5C139.907 24.4583 140.334 24.125 140.709 23.5C141.125 22.875 141.49 22.1875 141.803 21.4375C142.136 20.6667 142.469 19.8542 142.803 19L145.709 10.875C145.917 10.4375 146.178 10.0833 146.49 9.8125C146.823 9.52083 147.334 9.375 148.021 9.375C148.625 9.375 149.115 9.58333 149.49 10C149.886 10.4167 150.063 10.9167 150.021 11.5C150 11.7708 149.938 12.0208 149.834 12.25L146.396 21.125C145.438 23.5 144.48 25.3958 143.521 26.8125C142.584 28.2083 141.219 28.9167 139.428 28.9375C137.615 28.9167 136.24 28.1979 135.303 26.7812Z" fill="#00C8FA"/>
</svg>
