<svg width="25" height="25" viewBox="0 0 25 25" fill="none" xmlns="http://www.w3.org/2000/svg">
<path d="M13.2365 2.38848L22.6115 11.7635C23.2677 12.4197 22.8032 13.5416 21.875 13.5416H20.8334V19.7916C20.8334 20.6204 20.5041 21.4153 19.9181 22.0013C19.332 22.5874 18.5372 22.9166 17.7084 22.9166H16.6667V15.6249C16.6667 14.8278 16.3622 14.0609 15.8154 13.4809C15.2685 12.901 14.5208 12.5519 13.725 12.5051L13.5417 12.4999H11.4584C10.6296 12.4999 9.83471 12.8292 9.24865 13.4152C8.6626 14.0013 8.33336 14.7961 8.33336 15.6249V22.9166H7.2917C6.4629 22.9166 5.66804 22.5874 5.08199 22.0013C4.49594 21.4153 4.1667 20.6204 4.1667 19.7916V13.5416H3.12503C2.19795 13.5416 1.73232 12.4197 2.38857 11.7635L11.7636 2.38848C11.9589 2.1932 12.2238 2.0835 12.5 2.0835C12.7762 2.0835 13.0411 2.1932 13.2365 2.38848ZM13.5417 14.5833C13.818 14.5833 14.0829 14.693 14.2783 14.8884C14.4736 15.0837 14.5834 15.3487 14.5834 15.6249V22.9166H10.4167V15.6249C10.4167 15.3698 10.5104 15.1235 10.6799 14.9329C10.8495 14.7422 11.0831 14.6204 11.3365 14.5906L11.4584 14.5833H13.5417Z" fill="white"/>
</svg>
