<svg width="26" height="25" viewBox="0 0 26 25" fill="none" xmlns="http://www.w3.org/2000/svg">
<path d="M10.973 3.125L9.23657 8.33333H15.3741L17.1105 3.125H10.973Z" fill="white"/>
<path d="M8.77716 3.125L7.04071 8.33333H2.58341V10.4167H23.4167V8.33333H17.5699L19.3063 3.125H21.9584C22.2867 3.125 22.6118 3.18966 22.9151 3.3153C23.2184 3.44094 23.494 3.62509 23.7262 3.85723C23.9583 4.08938 24.1425 4.36498 24.2681 4.66829C24.3937 4.97161 24.4584 5.2967 24.4584 5.625V19.375C24.4584 20.038 24.195 20.6739 23.7262 21.1428C23.2573 21.6116 22.6215 21.875 21.9584 21.875H4.04175C3.37871 21.875 2.74282 21.6116 2.27398 21.1428C1.80514 20.6739 1.54175 20.038 1.54175 19.375V5.625C1.54175 5.2967 1.60641 4.97161 1.73205 4.66829C1.85769 4.36498 2.04183 4.08938 2.27398 3.85723C2.74282 3.38839 3.37871 3.125 4.04175 3.125H8.77716Z" fill="white"/>
</svg>
