<svg width="25" height="25" viewBox="0 0 25 25" fill="none" xmlns="http://www.w3.org/2000/svg">
<path fill-rule="evenodd" clip-rule="evenodd" d="M3.60825 3.60825C2.08325 5.13534 2.08325 7.5895 2.08325 12.4999C2.08325 17.4103 2.08325 19.8655 3.60825 21.3905C5.13534 22.9166 7.5895 22.9166 12.4999 22.9166C17.4103 22.9166 19.8655 22.9166 21.3905 21.3905C22.9166 19.8666 22.9166 17.4103 22.9166 12.4999C22.9166 7.5895 22.9166 5.13429 21.3905 3.60825C19.8666 2.08325 17.4103 2.08325 12.4999 2.08325C7.5895 2.08325 5.13429 2.08325 3.60825 3.60825ZM12.4999 13.5416C12.7762 13.5416 13.0411 13.4318 13.2365 13.2365C13.4318 13.0411 13.5416 12.7762 13.5416 12.4999C13.5416 12.2237 13.4318 11.9587 13.2365 11.7633C13.0411 11.568 12.7762 11.4583 12.4999 11.4583C12.2237 11.4583 11.9587 11.568 11.7633 11.7633C11.568 11.9587 11.4583 12.2237 11.4583 12.4999C11.4583 12.7762 11.568 13.0411 11.7633 13.2365C11.9587 13.4318 12.2237 13.5416 12.4999 13.5416ZM9.37492 12.4999C9.37492 12.7762 9.26517 13.0411 9.06982 13.2365C8.87447 13.4318 8.60952 13.5416 8.33325 13.5416C8.05698 13.5416 7.79203 13.4318 7.59668 13.2365C7.40133 13.0411 7.29158 12.7762 7.29158 12.4999C7.29158 12.2237 7.40133 11.9587 7.59668 11.7633C7.79203 11.568 8.05698 11.4583 8.33325 11.4583C8.60952 11.4583 8.87447 11.568 9.06982 11.7633C9.26517 11.9587 9.37492 12.2237 9.37492 12.4999ZM16.6666 13.5416C16.9429 13.5416 17.2078 13.4318 17.4032 13.2365C17.5985 13.0411 17.7083 12.7762 17.7083 12.4999C17.7083 12.2237 17.5985 11.9587 17.4032 11.7633C17.2078 11.568 16.9429 11.4583 16.6666 11.4583C16.3903 11.4583 16.1254 11.568 15.93 11.7633C15.7347 11.9587 15.6249 12.2237 15.6249 12.4999C15.6249 12.7762 15.7347 13.0411 15.93 13.2365C16.1254 13.4318 16.3903 13.5416 16.6666 13.5416Z" fill="white"/>
</svg>
