<svg width="20" height="21" viewBox="0 0 20 21" fill="none" xmlns="http://www.w3.org/2000/svg">
<path d="M14.6651 13.3978H13.7383L13.4098 13.0812C14.8176 11.4398 15.545 9.2004 15.1461 6.8203C14.5947 3.56086 11.873 0.957994 8.58819 0.559357C3.62577 -0.0503235 -0.550646 4.12364 0.0593914 9.08315C0.458262 12.366 3.06265 15.0862 6.32401 15.6372C8.7055 16.0359 10.9462 15.3089 12.5886 13.902L12.9054 14.2303V15.1565L17.8913 20.1395C18.3723 20.6202 19.1583 20.6202 19.6393 20.1395C20.1202 19.6588 20.1202 18.8732 19.6393 18.3925L14.6651 13.3978ZM7.62621 13.3978C4.70506 13.3978 2.34703 11.0412 2.34703 8.12174C2.34703 5.20231 4.70506 2.84566 7.62621 2.84566C10.5473 2.84566 12.9054 5.20231 12.9054 8.12174C12.9054 11.0412 10.5473 13.3978 7.62621 13.3978Z" fill="white"/>
</svg>
