<svg width="25" height="25" viewBox="0 0 25 25" fill="none" xmlns="http://www.w3.org/2000/svg">
<path d="M22.6562 3.90625C22.8635 3.90625 23.0622 3.98856 23.2087 4.13507C23.3552 4.28159 23.4375 4.4803 23.4375 4.6875V15.625C23.4375 15.8322 23.3552 16.0309 23.2087 16.1774C23.0622 16.3239 22.8635 16.4062 22.6562 16.4062H2.34375C2.13655 16.4062 1.93784 16.3239 1.79132 16.1774C1.64481 16.0309 1.5625 15.8322 1.5625 15.625V4.6875C1.5625 4.4803 1.64481 4.28159 1.79132 4.13507C1.93784 3.98856 2.13655 3.90625 2.34375 3.90625H22.6562ZM12.5 17.9859C13.4198 17.9845 14.3252 18.2141 15.1331 18.6536C15.9411 19.0932 16.6257 19.7286 17.1242 20.5016C17.1627 20.5612 17.1843 20.6302 17.1869 20.7011C17.1895 20.7721 17.173 20.8424 17.139 20.9048C17.105 20.9671 17.0549 21.0192 16.9939 21.0554C16.9329 21.0917 16.8632 21.1109 16.7922 21.1109H8.20781C8.13682 21.1109 8.06715 21.0917 8.00612 21.0554C7.94509 21.0192 7.89496 20.9671 7.86099 20.9048C7.82702 20.8424 7.81047 20.7721 7.81307 20.7011C7.81568 20.6302 7.83734 20.5612 7.87578 20.5016C8.37436 19.7287 9.05903 19.0935 9.86698 18.6541C10.6749 18.2147 11.5803 17.9852 12.5 17.9867" fill="white"/>
</svg>
