<svg width="25" height="25" viewBox="0 0 25 25" fill="none" xmlns="http://www.w3.org/2000/svg">
<path d="M18.7499 11.4583C18.7499 10.4594 18.0416 9.62396 17.103 9.42292C17.478 8.79687 17.7083 8.07292 17.7083 7.29167C17.7083 4.99375 15.8395 3.125 13.5416 3.125C11.9624 3.125 10.602 4.01771 9.89575 5.31667C9.1895 4.01771 7.82908 3.125 6.24992 3.125C3.952 3.125 2.08325 4.99375 2.08325 7.29167C2.08325 8.23125 2.40825 9.08958 2.93429 9.7875C2.67173 9.98011 2.45797 10.2316 2.31017 10.5218C2.16238 10.8119 2.08466 11.1327 2.08325 11.4583V19.7917C2.08325 20.9406 3.01763 21.875 4.16659 21.875H16.6666C17.8155 21.875 18.7499 20.9406 18.7499 19.7917V17.0448L22.9166 19.1281V11.8365L18.7499 13.9198V11.4583ZM13.5416 5.20833C14.6905 5.20833 15.6249 6.14271 15.6249 7.29167C15.6249 8.44062 14.6905 9.375 13.5416 9.375C12.3926 9.375 11.4583 8.44062 11.4583 7.29167C11.4583 6.14271 12.3926 5.20833 13.5416 5.20833ZM6.24992 5.20833C7.39888 5.20833 8.33325 6.14271 8.33325 7.29167C8.33325 8.44062 7.39888 9.375 6.24992 9.375C5.10096 9.375 4.16659 8.44062 4.16659 7.29167C4.16659 6.14271 5.10096 5.20833 6.24992 5.20833Z" fill="white"/>
</svg>
