<svg width="33" height="32" viewBox="0 0 33 32" fill="none" xmlns="http://www.w3.org/2000/svg">
<g clip-path="url(#clip0_112_2277)">
<path d="M24.1987 31.966H8.21565C3.82033 31.966 0.224152 28.3698 0.224152 23.9745V7.9915C0.224152 3.59618 3.82033 0 8.21565 0H24.1987C28.594 0 32.1902 3.59618 32.1902 7.9915V23.9745C32.1902 28.3698 28.594 31.966 24.1987 31.966Z" fill="#F7AF3F"/>
<path d="M21.6682 21.8436H10.6133C9.68093 21.8436 8.88178 21.3108 8.48221 20.5117C8.08263 19.5793 8.21582 18.3806 8.88178 17.5815L14.4758 10.7887C15.275 9.85634 16.7401 9.72315 17.8056 10.5223L18.072 10.7887L23.6661 17.5815C24.332 18.3806 24.4652 19.5793 24.0656 20.5117C23.3997 21.3108 22.6005 21.8436 21.6682 21.8436Z" fill="white"/>
</g>
<defs>
<clipPath id="clip0_112_2277">
<rect width="31.966" height="31.966" fill="white" transform="translate(0.224243)"/>
</clipPath>
</defs>
</svg>
