<svg width="32" height="32" viewBox="0 0 32 32" fill="none" xmlns="http://www.w3.org/2000/svg">
<path d="M24 14.6667C24 13.388 23.0933 12.3187 21.892 12.0613C22.372 11.26 22.6666 10.3333 22.6666 9.33333C22.6666 6.392 20.2746 4 17.3333 4C15.312 4 13.5706 5.14267 12.6666 6.80533C11.7626 5.14267 10.0213 4 7.99996 4C5.05863 4 2.66663 6.392 2.66663 9.33333C2.66663 10.536 3.08263 11.6347 3.75596 12.528C3.41987 12.7745 3.14626 13.0964 2.95708 13.4679C2.7679 13.8393 2.66842 14.2499 2.66663 14.6667V25.3333C2.66663 26.804 3.86263 28 5.33329 28H21.3333C22.804 28 24 26.804 24 25.3333V21.8173L29.3333 24.484V15.1507L24 17.8173V14.6667ZM17.3333 6.66667C18.804 6.66667 20 7.86267 20 9.33333C20 10.804 18.804 12 17.3333 12C15.8626 12 14.6666 10.804 14.6666 9.33333C14.6666 7.86267 15.8626 6.66667 17.3333 6.66667ZM7.99996 6.66667C9.47063 6.66667 10.6666 7.86267 10.6666 9.33333C10.6666 10.804 9.47063 12 7.99996 12C6.52929 12 5.33329 10.804 5.33329 9.33333C5.33329 7.86267 6.52929 6.66667 7.99996 6.66667Z" fill="#00C8FA"/>
</svg>
